<svg width="393" height="383" viewBox="0 0 393 383" fill="none" xmlns="http://www.w3.org/2000/svg">
<path d="M251.918 53.1695C264.012 60.1518 274.612 69.4477 283.113 80.5266C291.614 91.6054 297.85 104.25 301.464 117.739C305.078 131.228 306 145.296 304.178 159.141C302.355 172.987 297.823 186.337 290.841 198.431C283.858 210.524 274.562 221.124 263.483 229.626C252.405 238.127 239.76 244.362 226.271 247.977C212.782 251.591 198.714 252.513 184.869 250.69C171.023 248.868 157.673 244.336 145.579 237.353L198.749 145.261L251.918 53.1695Z" fill="#492472"/>
<path d="M126.494 246.14C115.136 238.017 105.488 227.735 98.1032 215.883C90.718 204.032 85.7395 190.841 83.452 177.065C81.1645 163.289 81.6128 149.197 84.7712 135.595C87.9297 121.992 93.7365 109.145 101.86 97.786C109.984 86.4274 120.265 76.7801 132.117 69.3949C143.969 62.0097 157.159 57.0312 170.935 54.7437C184.711 52.4562 198.803 52.9045 212.406 56.063C226.008 59.2214 238.856 65.0282 250.214 73.1518L188.354 159.646L126.494 246.14Z" fill="#592E88"/>
<path d="M131.856 231.16V208.96C131.856 207 133.136 205.68 135.136 205.68C137.136 205.68 138.416 207 138.416 208.96V229.48H149.376C151.256 229.48 152.776 230.44 152.776 232.24C152.776 234.04 151.256 235 149.376 235H135.696C133.376 235 131.856 234.08 131.856 231.16ZM173.75 225.64H160.55C160.55 228.72 162.55 230.96 165.95 230.96C170.35 230.96 170.35 228.08 172.71 228.08C174.11 228.08 175.11 229.28 175.11 230.36C175.11 233.88 169.47 235.52 165.95 235.52C157.79 235.52 154.71 230 154.71 224.92C154.71 218.12 158.83 213.56 165.75 213.56C172.47 213.56 176.31 218.32 176.31 223.12C176.31 225.12 175.71 225.64 173.75 225.64ZM160.55 222.28H170.79C170.47 219.6 168.47 217.64 165.87 217.64C162.95 217.64 161.19 219.44 160.55 222.28ZM199.482 219.56V229.36C199.482 231.8 200.082 232.36 200.082 233.28C200.082 234.6 198.842 235.52 197.442 235.52C194.922 235.52 194.082 233.92 194.002 232.12C191.722 234.64 189.082 235.52 186.002 235.52C182.682 235.52 179.402 233.24 179.402 229.56C179.402 224.72 183.082 223.36 187.562 222.84L191.122 222.44C192.522 222.28 193.642 221.96 193.642 220.28C193.642 218.6 191.922 217.88 189.962 217.88C185.642 217.88 185.522 221.08 183.202 221.08C181.722 221.08 180.722 220.04 180.722 218.84C180.722 216.52 184.002 213.56 190.002 213.56C195.602 213.56 199.482 215.36 199.482 219.56ZM193.642 227.44V225.16C193.002 225.76 191.802 225.96 191.122 226.08L189.002 226.4C186.562 226.76 185.242 227.52 185.242 229.28C185.242 230.6 186.482 231.68 188.482 231.68C191.682 231.68 193.642 229.6 193.642 227.44ZM204.855 232.6V216.28C204.855 214.52 206.015 213.56 207.495 213.56C208.975 213.56 210.135 214.52 210.135 216.28V218.52H210.215C210.895 216.08 212.215 213.56 215.055 213.56C216.895 213.56 218.255 214.76 218.255 216.4C218.255 218.56 216.815 219.32 215.375 219.32H214.335C211.975 219.32 210.695 220.96 210.695 225.8V232.6C210.695 234.16 210.055 235.52 207.775 235.52C205.495 235.52 204.855 234.16 204.855 232.6ZM220.824 232.6V216.48C220.824 214.72 221.624 213.56 223.464 213.56C225.304 213.56 226.104 214.72 226.104 216.48V217.24H226.184C227.824 215.08 229.944 213.56 233.264 213.56C236.784 213.56 240.624 215.32 240.624 221.24V232.6C240.624 234.16 239.984 235.52 237.704 235.52C235.424 235.52 234.784 234.16 234.784 232.6V222.4C234.784 220.04 233.624 218.36 231.104 218.36C229.064 218.36 226.664 220.04 226.664 222.96V232.6C226.664 234.16 226.024 235.52 223.744 235.52C221.464 235.52 220.824 234.16 220.824 232.6ZM111.982 266.56V276.36C111.982 278.8 112.582 279.36 112.582 280.28C112.582 281.6 111.342 282.52 109.942 282.52C107.422 282.52 106.582 280.92 106.502 279.12C104.222 281.64 101.582 282.52 98.5017 282.52C95.1817 282.52 91.9017 280.24 91.9017 276.56C91.9017 271.72 95.5817 270.36 100.062 269.84L103.622 269.44C105.022 269.28 106.142 268.96 106.142 267.28C106.142 265.6 104.422 264.88 102.462 264.88C98.1417 264.88 98.0217 268.08 95.7017 268.08C94.2217 268.08 93.2217 267.04 93.2217 265.84C93.2217 263.52 96.5017 260.56 102.502 260.56C108.102 260.56 111.982 262.36 111.982 266.56ZM106.142 274.44V272.16C105.502 272.76 104.302 272.96 103.622 273.08L101.502 273.4C99.0617 273.76 97.7417 274.52 97.7417 276.28C97.7417 277.6 98.9817 278.68 100.982 278.68C104.182 278.68 106.142 276.6 106.142 274.44ZM117.035 279.6V263.48C117.035 261.72 117.835 260.56 119.675 260.56C121.515 260.56 122.315 261.72 122.315 263.48V264.24H122.395C124.035 262.08 126.155 260.56 129.475 260.56C132.995 260.56 136.835 262.32 136.835 268.24V279.6C136.835 281.16 136.195 282.52 133.915 282.52C131.635 282.52 130.995 281.16 130.995 279.6V269.4C130.995 267.04 129.835 265.36 127.315 265.36C125.275 265.36 122.875 267.04 122.875 269.96V279.6C122.875 281.16 122.235 282.52 119.955 282.52C117.675 282.52 117.035 281.16 117.035 279.6ZM161.288 255.6V279.76C161.288 281.56 160.448 282.52 158.648 282.52C156.928 282.52 156.008 281.56 156.008 279.76V278.84H155.928C154.968 281.32 152.608 282.52 149.768 282.52C144.888 282.52 140.608 278.96 140.608 271.4C140.608 265.8 143.448 260.56 149.608 260.56C152.208 260.56 154.208 261.64 155.368 263.52H155.448V255.6C155.448 253.68 156.608 252.68 158.368 252.68C160.128 252.68 161.288 253.68 161.288 255.6ZM146.448 271.6C146.448 275.04 147.968 277.88 151.088 277.96C154.488 277.96 155.768 274.92 155.768 271.6C155.768 268.6 154.648 265.08 151.088 265.12C147.368 265.12 146.448 268.88 146.448 271.6ZM178.888 279.24V255.96C178.888 254 180.168 252.68 182.168 252.68C184.168 252.68 185.448 254 185.448 255.96V279.24C185.448 281.2 184.168 282.52 182.168 282.52C180.168 282.52 178.888 281.2 178.888 279.24ZM190.824 279.6V263.48C190.824 261.72 191.624 260.56 193.464 260.56C195.304 260.56 196.104 261.72 196.104 263.48V264.24H196.184C197.824 262.08 199.944 260.56 203.264 260.56C206.784 260.56 210.624 262.32 210.624 268.24V279.6C210.624 281.16 209.984 282.52 207.704 282.52C205.424 282.52 204.784 281.16 204.784 279.6V269.4C204.784 267.04 203.624 265.36 201.104 265.36C199.064 265.36 196.664 267.04 196.664 269.96V279.6C196.664 281.16 196.024 282.52 193.744 282.52C191.464 282.52 190.824 281.16 190.824 279.6ZM219.117 280.44L213.597 265.08C213.437 264.6 213.237 263.96 213.237 263.6C213.237 261.52 214.677 260.56 216.077 260.56C218.277 260.56 218.837 262.4 218.997 263L222.917 276.2H222.997L226.917 263C227.077 262.4 227.637 260.56 229.837 260.56C231.237 260.56 232.677 261.52 232.677 263.6C232.677 263.96 232.477 264.6 232.317 265.08L226.797 280.44C226.237 282 225.877 282.52 222.957 282.52C220.037 282.52 219.677 282 219.117 280.44ZM253.437 272.64H240.237C240.237 275.72 242.237 277.96 245.637 277.96C250.037 277.96 250.037 275.08 252.397 275.08C253.797 275.08 254.797 276.28 254.797 277.36C254.797 280.88 249.157 282.52 245.637 282.52C237.477 282.52 234.397 277 234.397 271.92C234.397 265.12 238.517 260.56 245.437 260.56C252.157 260.56 255.997 265.32 255.997 270.12C255.997 272.12 255.397 272.64 253.437 272.64ZM240.237 269.28H250.477C250.157 266.6 248.157 264.64 245.557 264.64C242.637 264.64 240.877 266.44 240.237 269.28ZM258.849 267.08C258.849 262.32 263.569 260.56 267.609 260.56C272.049 260.56 276.529 262.32 276.529 265C276.529 266.36 275.609 267.56 274.089 267.56C271.809 267.56 271.729 264.88 268.049 264.88C266.009 264.88 264.689 265.44 264.689 266.68C264.689 268.04 266.009 268.36 267.809 268.76L270.249 269.32C273.569 270.08 277.529 271.48 277.529 275.56C277.529 280.32 272.929 282.52 268.529 282.52C263.249 282.52 258.849 280.16 258.849 277.28C258.849 276 259.569 274.84 261.209 274.84C263.729 274.84 263.969 278.44 268.289 278.44C270.369 278.44 271.689 277.52 271.689 276.32C271.689 274.84 270.409 274.6 268.329 274.08L264.889 273.24C261.489 272.4 258.849 271 258.849 267.08ZM282.774 277.32V264.92H281.774C280.134 264.92 279.454 264.28 279.454 263C279.454 261.72 280.134 261.08 281.774 261.08H282.774V257.52C282.774 255.6 283.934 254.6 285.694 254.6C287.454 254.6 288.614 255.6 288.614 257.52V261.08H290.374C292.094 261.08 293.014 261.6 293.014 263C293.014 264.4 292.094 264.92 290.374 264.92H288.614V276.6C288.614 277.48 289.094 277.96 290.134 277.96H290.974C292.254 277.96 293.014 278.68 293.014 279.92C293.014 281.6 291.574 282.52 288.774 282.52C284.534 282.52 282.774 280.76 282.774 277.32Z" fill="white"/>
<path d="M22.5 367H126.5L144.5 300" stroke="#9856DD" stroke-width="30"/>
<rect x="240.371" y="312" width="99.2257" height="28" rx="14" transform="rotate(15.2623 240.371 312)" fill="#FE9090"/>
<path d="M250.045 324.578L256.099 326.23L255.821 327.248L250.864 325.895L250.176 328.416L254.76 329.667L254.498 330.628L249.914 329.377L249.146 332.192L254.188 333.568L253.918 334.557L247.779 332.882L250.045 324.578ZM256.477 333.524C256.397 333.818 256.441 334.079 256.61 334.308C256.778 334.536 257.01 334.69 257.304 334.77C257.662 334.868 258.031 334.88 258.412 334.805C259.052 334.684 259.457 334.311 259.628 333.686L259.852 332.866C259.706 332.911 259.528 332.933 259.317 332.933C259.107 332.932 258.904 332.917 258.71 332.888L258.072 332.799C257.689 332.748 257.391 332.749 257.178 332.805C256.817 332.896 256.583 333.136 256.477 333.524ZM259.503 332.139C259.745 332.173 259.928 332.118 260.053 331.973C260.123 331.895 260.181 331.771 260.227 331.602C260.322 331.255 260.266 330.971 260.059 330.748C259.857 330.523 259.527 330.348 259.067 330.222C258.535 330.077 258.12 330.118 257.819 330.344C257.652 330.468 257.506 330.681 257.383 330.984L256.434 330.725C256.656 329.984 257.039 329.531 257.581 329.368C258.129 329.201 258.71 329.202 259.324 329.369C260.036 329.564 260.578 329.857 260.948 330.25C261.315 330.641 261.42 331.124 261.264 331.697L260.312 335.184C260.284 335.29 260.281 335.38 260.305 335.456C260.333 335.532 260.417 335.589 260.556 335.627C260.601 335.64 260.653 335.652 260.71 335.663C260.769 335.671 260.832 335.678 260.899 335.684L260.694 336.436C260.523 336.438 260.395 336.434 260.309 336.422C260.223 336.411 260.108 336.386 259.965 336.347C259.614 336.251 259.394 336.057 259.304 335.765C259.257 335.611 259.249 335.408 259.281 335.158C259 335.373 258.638 335.527 258.195 335.621C257.752 335.715 257.297 335.698 256.83 335.57C256.269 335.417 255.855 335.122 255.59 334.685C255.329 334.246 255.269 333.77 255.408 333.257C255.562 332.696 255.856 332.308 256.29 332.095C256.725 331.881 257.237 331.816 257.826 331.9L259.503 332.139ZM262.825 334.947C262.763 335.294 262.776 335.577 262.866 335.796C263.033 336.194 263.433 336.479 264.066 336.652C264.443 336.755 264.797 336.764 265.127 336.68C265.459 336.593 265.672 336.377 265.765 336.034C265.836 335.774 265.775 335.545 265.582 335.347C265.458 335.224 265.194 335.049 264.791 334.821L264.038 334.397C263.556 334.128 263.215 333.881 263.013 333.656C262.651 333.261 262.536 332.821 262.669 332.335C262.825 331.762 263.157 331.355 263.665 331.113C264.176 330.871 264.78 330.846 265.477 331.036C266.389 331.285 266.974 331.732 267.231 332.377C267.391 332.785 267.414 333.184 267.299 333.574L266.338 333.312C266.382 333.077 266.358 332.846 266.266 332.618C266.106 332.287 265.737 332.042 265.16 331.885C264.776 331.78 264.464 331.774 264.224 331.866C263.988 331.96 263.837 332.127 263.771 332.369C263.699 332.632 263.772 332.879 263.989 333.108C264.114 333.243 264.313 333.387 264.588 333.539L265.216 333.886C265.898 334.263 266.342 334.568 266.545 334.802C266.87 335.17 266.956 335.633 266.804 336.19C266.657 336.729 266.324 337.139 265.807 337.418C265.293 337.699 264.618 337.726 263.781 337.497C262.88 337.251 262.297 336.874 262.031 336.364C261.77 335.851 261.709 335.29 261.847 334.68L262.825 334.947ZM272.924 333.238L274.049 333.545C273.8 333.894 273.239 334.693 272.368 335.941C271.715 336.881 271.175 337.644 270.747 338.232C269.738 339.617 269.066 340.446 268.733 340.719C268.399 340.992 267.938 341.049 267.35 340.888C267.207 340.849 267.097 340.813 267.021 340.78C266.949 340.749 266.86 340.702 266.756 340.641L267.008 339.714C267.172 339.811 267.292 339.877 267.368 339.909C267.444 339.942 267.512 339.967 267.573 339.983C267.761 340.035 267.907 340.04 268.012 340C268.118 339.964 268.214 339.91 268.299 339.836C268.326 339.811 268.436 339.675 268.629 339.428C268.822 339.181 268.964 338.996 269.053 338.875L268.515 332.035L269.668 332.35L269.945 337.722L272.924 333.238ZM278.817 333.03L279.846 333.311L279.385 335.001L280.351 335.265L280.125 336.096L279.158 335.832L278.08 339.783C278.022 339.994 278.055 340.155 278.179 340.266C278.247 340.329 278.373 340.386 278.558 340.436C278.607 340.449 278.66 340.464 278.716 340.479C278.774 340.491 278.841 340.503 278.919 340.516L278.7 341.319C278.573 341.321 278.444 341.312 278.312 341.292C278.184 341.273 278.046 341.244 277.899 341.204C277.424 341.074 277.135 340.866 277.031 340.578C276.928 340.287 276.93 339.947 277.036 339.559L278.129 335.551L277.31 335.328L277.536 334.497L278.356 334.72L278.817 333.03ZM282.304 341.598C282.979 341.782 283.51 341.654 283.897 341.213C284.289 340.769 284.571 340.234 284.742 339.609C284.896 339.044 284.931 338.559 284.847 338.156C284.712 337.52 284.295 337.106 283.594 336.915C282.972 336.745 282.455 336.859 282.043 337.257C281.631 337.655 281.333 338.189 281.15 338.86C280.974 339.504 280.969 340.08 281.134 340.586C281.3 341.093 281.69 341.43 282.304 341.598ZM283.864 336.035C284.644 336.248 285.233 336.688 285.63 337.355C286.027 338.022 286.088 338.861 285.812 339.871C285.546 340.847 285.088 341.588 284.44 342.096C283.791 342.603 282.967 342.72 281.969 342.448C281.136 342.221 280.551 341.759 280.215 341.064C279.879 340.365 279.841 339.541 280.1 338.591C280.377 337.574 280.857 336.834 281.537 336.372C282.218 335.91 282.994 335.798 283.864 336.035ZM291.79 335.969L292.915 336.276L290.919 343.59L295.125 344.738L294.855 345.727L289.525 344.273L291.79 335.969ZM300.043 340.492C300.473 340.609 300.861 340.825 301.209 341.138C301.558 341.448 301.794 341.792 301.917 342.17C302.038 342.531 302.076 342.924 302.033 343.349C302.017 343.645 301.926 344.097 301.759 344.708L297.322 343.497C297.173 344.117 297.184 344.65 297.353 345.097C297.524 345.54 297.894 345.84 298.463 345.995C298.994 346.14 299.466 346.08 299.878 345.816C300.114 345.662 300.307 345.461 300.455 345.214L301.456 345.487C301.369 345.703 301.212 345.927 300.986 346.161C300.765 346.392 300.539 346.569 300.307 346.692C299.916 346.91 299.478 347.009 298.993 346.99C298.731 346.983 298.446 346.938 298.137 346.854C297.383 346.648 296.819 346.2 296.445 345.511C296.071 344.818 296.019 343.978 296.288 342.99C296.553 342.018 297.033 341.3 297.726 340.838C298.419 340.375 299.191 340.26 300.043 340.492ZM300.934 343.614C301.013 343.162 301.013 342.783 300.934 342.478C300.789 341.913 300.391 341.541 299.739 341.363C299.271 341.235 298.833 341.298 298.424 341.551C298.016 341.8 297.732 342.182 297.571 342.696L300.934 343.614ZM303.497 346.354C303.416 346.648 303.461 346.909 303.629 347.137C303.798 347.366 304.029 347.52 304.323 347.6C304.681 347.698 305.05 347.709 305.431 347.635C306.071 347.514 306.477 347.141 306.647 346.515L306.871 345.696C306.725 345.741 306.547 345.763 306.337 345.762C306.126 345.762 305.924 345.747 305.729 345.718L305.091 345.629C304.709 345.577 304.411 345.579 304.197 345.634C303.836 345.726 303.603 345.966 303.497 346.354ZM306.523 344.969C306.765 345.003 306.948 344.947 307.072 344.803C307.142 344.725 307.2 344.601 307.246 344.432C307.341 344.085 307.285 343.8 307.078 343.578C306.877 343.353 306.546 343.178 306.086 343.052C305.555 342.907 305.139 342.948 304.838 343.173C304.671 343.298 304.526 343.511 304.403 343.814L303.453 343.554C303.675 342.813 304.058 342.361 304.601 342.197C305.148 342.031 305.729 342.031 306.343 342.199C307.055 342.393 307.597 342.687 307.968 343.08C308.334 343.471 308.44 343.953 308.283 344.526L307.332 348.014C307.303 348.12 307.301 348.21 307.325 348.285C307.352 348.362 307.436 348.419 307.575 348.457C307.62 348.469 307.672 348.481 307.729 348.493C307.788 348.501 307.851 348.508 307.918 348.514L307.713 349.266C307.542 349.268 307.414 349.263 307.328 349.252C307.242 349.241 307.127 349.215 306.984 349.176C306.634 349.081 306.413 348.887 306.323 348.595C306.276 348.441 306.268 348.238 306.3 347.988C306.019 348.202 305.657 348.357 305.214 348.451C304.772 348.544 304.317 348.528 303.849 348.4C303.288 348.247 302.875 347.952 302.609 347.515C302.348 347.075 302.288 346.599 302.428 346.087C302.581 345.525 302.875 345.138 303.31 344.924C303.745 344.711 304.256 344.646 304.845 344.73L306.523 344.969ZM310.401 343.464L311.368 343.728L311.083 344.774C311.217 344.592 311.479 344.398 311.867 344.192C312.256 343.983 312.652 343.933 313.056 344.043C313.074 344.048 313.106 344.059 313.15 344.075C313.194 344.091 313.269 344.119 313.376 344.161L313.083 345.235C313.025 345.207 312.971 345.184 312.919 345.166C312.871 345.148 312.817 345.132 312.757 345.115C312.244 344.975 311.805 345.034 311.44 345.29C311.075 345.543 310.834 345.884 310.717 346.314L309.767 349.796L308.749 349.518L310.401 343.464ZM314.228 344.509L315.195 344.772L314.96 345.631C315.343 345.355 315.716 345.184 316.079 345.117C316.441 345.05 316.818 345.07 317.21 345.176C318.07 345.411 318.568 345.869 318.706 346.55C318.782 346.923 318.737 347.415 318.571 348.026L317.511 351.909L316.477 351.627L317.518 347.811C317.619 347.442 317.645 347.129 317.598 346.873C317.52 346.447 317.243 346.169 316.768 346.04C316.527 345.974 316.323 345.944 316.155 345.951C315.853 345.958 315.563 346.057 315.284 346.248C315.06 346.402 314.892 346.579 314.781 346.779C314.674 346.977 314.567 347.273 314.459 347.669L313.594 350.84L312.576 350.563L314.228 344.509ZM321.88 344.179L323.027 344.492L322.282 347.222L321.024 350.742L320.448 350.585L321.135 346.909L321.88 344.179ZM319.935 351.307L321.06 351.614L320.739 352.79L319.614 352.483L319.935 351.307Z" fill="white"/>
<path d="M416.5 285L219.148 140.372C214.746 137.146 209.845 134.662 204.64 133.02L100.062 100.018C94.0444 98.1185 87.4832 99.1709 82.3612 102.857L67.5776 113.496C47.8686 127.679 33.9935 148.548 28.5414 172.21L16.6556 223.795C13.7363 236.464 17.1571 249.762 25.8277 259.451L127 372.5" stroke="#9856DD" stroke-width="30"/>
</svg>
