<svg width="403" height="511" viewBox="0 0 403 511" fill="none" xmlns="http://www.w3.org/2000/svg">
<path d="M68.5 91L197.887 158.73C203.606 161.723 210.419 161.773 216.181 158.862L350.5 91L331.758 202.044C330.927 206.971 331.026 212.01 332.05 216.9L350.5 305L327.907 382.156C325.558 390.178 318.468 395.893 310.131 396.485L141 408.5L84.6144 306.059C79.0448 295.94 79.779 283.522 86.5022 274.131L132.891 209.328C137.764 202.52 137.882 193.398 133.186 186.467L68.5 91Z" fill="#00C544"/>
<rect x="301.5" y="167" width="67" height="28" rx="14" fill="#65A8FF"/>
<path d="M309.525 176.393H315.801V177.447H310.662V180.061H315.414V181.057H310.662V183.975H315.889V185H309.525V176.393ZM318.086 183.33C318.086 183.635 318.197 183.875 318.42 184.051C318.643 184.227 318.906 184.314 319.211 184.314C319.582 184.314 319.941 184.229 320.289 184.057C320.875 183.771 321.168 183.305 321.168 182.656V181.807C321.039 181.889 320.873 181.957 320.67 182.012C320.467 182.066 320.268 182.105 320.072 182.129L319.434 182.211C319.051 182.262 318.764 182.342 318.572 182.451C318.248 182.635 318.086 182.928 318.086 183.33ZM320.641 181.197C320.883 181.166 321.045 181.064 321.127 180.893C321.174 180.799 321.197 180.664 321.197 180.488C321.197 180.129 321.068 179.869 320.811 179.709C320.557 179.545 320.191 179.463 319.715 179.463C319.164 179.463 318.773 179.611 318.543 179.908C318.414 180.072 318.33 180.316 318.291 180.641H317.307C317.326 179.867 317.576 179.33 318.057 179.029C318.541 178.725 319.102 178.572 319.738 178.572C320.477 178.572 321.076 178.713 321.537 178.994C321.994 179.275 322.223 179.713 322.223 180.307V183.922C322.223 184.031 322.244 184.119 322.287 184.186C322.334 184.252 322.43 184.285 322.574 184.285C322.621 184.285 322.674 184.283 322.732 184.279C322.791 184.271 322.854 184.262 322.92 184.25V185.029C322.756 185.076 322.631 185.105 322.545 185.117C322.459 185.129 322.342 185.135 322.193 185.135C321.83 185.135 321.566 185.006 321.402 184.748C321.316 184.611 321.256 184.418 321.221 184.168C321.006 184.449 320.697 184.693 320.295 184.9C319.893 185.107 319.449 185.211 318.965 185.211C318.383 185.211 317.906 185.035 317.535 184.684C317.168 184.328 316.984 183.885 316.984 183.354C316.984 182.771 317.166 182.32 317.529 182C317.893 181.68 318.369 181.482 318.959 181.408L320.641 181.197ZM323.986 178.725H324.988V179.809C325.07 179.598 325.271 179.342 325.592 179.041C325.912 178.736 326.281 178.584 326.699 178.584C326.719 178.584 326.752 178.586 326.799 178.59C326.846 178.594 326.926 178.602 327.039 178.613V179.727C326.977 179.715 326.918 179.707 326.863 179.703C326.812 179.699 326.756 179.697 326.693 179.697C326.162 179.697 325.754 179.869 325.469 180.213C325.184 180.553 325.041 180.945 325.041 181.391V185H323.986V178.725ZM327.953 178.725H328.955V179.615C329.252 179.248 329.566 178.984 329.898 178.824C330.23 178.664 330.6 178.584 331.006 178.584C331.896 178.584 332.498 178.895 332.811 179.516C332.982 179.855 333.068 180.342 333.068 180.975V185H331.996V181.045C331.996 180.662 331.939 180.354 331.826 180.119C331.639 179.729 331.299 179.533 330.807 179.533C330.557 179.533 330.352 179.559 330.191 179.609C329.902 179.695 329.648 179.867 329.43 180.125C329.254 180.332 329.139 180.547 329.084 180.77C329.033 180.988 329.008 181.303 329.008 181.713V185H327.953V178.725ZM340.316 185.229C339.324 185.229 338.604 184.957 338.154 184.414C337.709 183.867 337.486 183.203 337.486 182.422H338.588C338.635 182.965 338.736 183.359 338.893 183.605C339.166 184.047 339.66 184.268 340.375 184.268C340.93 184.268 341.375 184.119 341.711 183.822C342.047 183.525 342.215 183.143 342.215 182.674C342.215 182.096 342.037 181.691 341.682 181.461C341.33 181.23 340.84 181.115 340.211 181.115C340.141 181.115 340.068 181.117 339.994 181.121C339.924 181.121 339.852 181.123 339.777 181.127V180.195C339.887 180.207 339.979 180.215 340.053 180.219C340.127 180.223 340.207 180.225 340.293 180.225C340.688 180.225 341.012 180.162 341.266 180.037C341.711 179.818 341.934 179.428 341.934 178.865C341.934 178.447 341.785 178.125 341.488 177.898C341.191 177.672 340.846 177.559 340.451 177.559C339.748 177.559 339.262 177.793 338.992 178.262C338.844 178.52 338.76 178.887 338.74 179.363H337.697C337.697 178.738 337.822 178.207 338.072 177.77C338.502 176.988 339.258 176.598 340.34 176.598C341.195 176.598 341.857 176.789 342.326 177.172C342.795 177.551 343.029 178.102 343.029 178.824C343.029 179.34 342.891 179.758 342.613 180.078C342.441 180.277 342.219 180.434 341.945 180.547C342.387 180.668 342.73 180.902 342.977 181.25C343.227 181.594 343.352 182.016 343.352 182.516C343.352 183.316 343.088 183.969 342.561 184.473C342.033 184.977 341.285 185.229 340.316 185.229ZM347.389 176.574C348.326 176.574 348.979 176.818 349.346 177.307C349.717 177.791 349.902 178.291 349.902 178.807H348.859C348.797 178.475 348.697 178.215 348.561 178.027C348.307 177.676 347.922 177.5 347.406 177.5C346.816 177.5 346.348 177.773 346 178.32C345.652 178.863 345.459 179.643 345.42 180.658C345.662 180.303 345.967 180.037 346.334 179.861C346.67 179.705 347.045 179.627 347.459 179.627C348.162 179.627 348.775 179.852 349.299 180.301C349.822 180.75 350.084 181.42 350.084 182.311C350.084 183.072 349.836 183.748 349.34 184.338C348.844 184.924 348.137 185.217 347.219 185.217C346.434 185.217 345.756 184.92 345.186 184.326C344.615 183.729 344.33 182.725 344.33 181.314C344.33 180.271 344.457 179.387 344.711 178.66C345.199 177.27 346.092 176.574 347.389 176.574ZM347.312 184.279C347.867 184.279 348.281 184.094 348.555 183.723C348.832 183.348 348.971 182.906 348.971 182.398C348.971 181.969 348.848 181.561 348.602 181.174C348.355 180.783 347.908 180.588 347.26 180.588C346.807 180.588 346.408 180.738 346.064 181.039C345.725 181.34 345.555 181.793 345.555 182.398C345.555 182.93 345.709 183.377 346.018 183.74C346.33 184.1 346.762 184.279 347.312 184.279ZM358.738 180.922C359.301 180.922 359.781 181.121 360.18 181.52C360.578 181.918 360.777 182.398 360.777 182.961C360.777 183.523 360.578 184.004 360.18 184.402C359.781 184.801 359.301 185 358.738 185C358.172 185 357.689 184.801 357.291 184.402C356.893 184.004 356.693 183.523 356.693 182.961C356.693 182.398 356.893 181.918 357.291 181.52C357.689 181.121 358.172 180.922 358.738 180.922ZM357.889 176.645H358.539L353.846 185.223H353.195L357.889 176.645ZM352.984 180.113C353.32 180.113 353.605 179.996 353.84 179.762C354.078 179.523 354.197 179.238 354.197 178.906C354.197 178.574 354.078 178.291 353.84 178.057C353.605 177.818 353.32 177.699 352.984 177.699C352.652 177.699 352.367 177.816 352.129 178.051C351.895 178.285 351.777 178.57 351.777 178.906C351.777 179.238 351.895 179.523 352.129 179.762C352.367 179.996 352.652 180.113 352.984 180.113ZM352.984 176.861C353.551 176.861 354.033 177.062 354.432 177.465C354.83 177.863 355.029 178.344 355.029 178.906C355.029 179.469 354.83 179.949 354.432 180.348C354.033 180.746 353.551 180.945 352.984 180.945C352.422 180.945 351.941 180.746 351.543 180.348C351.145 179.949 350.945 179.469 350.945 178.906C350.945 178.344 351.145 177.863 351.543 177.465C351.941 177.062 352.422 176.861 352.984 176.861ZM358.738 184.168C359.07 184.168 359.354 184.051 359.588 183.816C359.826 183.578 359.945 183.293 359.945 182.961C359.945 182.629 359.826 182.346 359.588 182.111C359.354 181.873 359.07 181.754 358.738 181.754C358.402 181.754 358.115 181.873 357.877 182.111C357.643 182.346 357.525 182.629 357.525 182.961C357.525 183.293 357.643 183.578 357.877 183.816C358.115 184.051 358.402 184.168 358.738 184.168Z" fill="white"/>
<rect x="74.5" width="68" height="65" rx="15" fill="#F47936"/>
<path d="M103.667 30.8756L106.692 13L109.494 30.8756L122.717 35.2865L109.494 36.504L106.692 52L103.667 36.6794L90.5 35.2865L103.667 30.8756Z" fill="#252525"/>
<path d="M119.09 19.2176L120.205 13L121.237 19.2176L126.109 20.7518L121.237 21.1753L120.205 26.5652L119.09 21.2363L114.239 20.7518L119.09 19.2176Z" fill="#252525"/>
<path d="M133.123 246.268L131.686 227.452C131.559 225.791 132.558 224.59 134.253 224.46C135.948 224.331 137.119 225.366 137.246 227.028L138.574 244.419L147.863 243.709C149.456 243.588 150.807 244.303 150.923 245.828C151.04 247.354 149.814 248.266 148.22 248.388L136.626 249.273C134.66 249.424 133.312 248.742 133.123 246.268ZM168.271 238.877L157.084 239.732C157.283 242.342 159.123 244.111 162.005 243.891C165.734 243.606 165.548 241.165 167.548 241.012C168.734 240.922 169.66 241.874 169.73 242.789C169.957 245.773 165.284 247.528 162.3 247.756C155.384 248.284 152.417 243.805 152.088 239.499C151.648 233.736 154.844 229.605 160.709 229.157C166.404 228.722 169.967 232.507 170.278 236.575C170.407 238.271 169.933 238.75 168.271 238.877ZM156.866 236.884L165.545 236.221C165.1 233.97 163.278 232.439 161.075 232.607C158.6 232.796 157.225 234.435 156.866 236.884ZM189.687 232.058L190.321 240.364C190.479 242.432 191.024 242.868 191.083 243.647C191.169 244.766 190.177 245.626 188.991 245.717C186.855 245.88 186.04 244.578 185.855 243.058C184.086 245.341 181.905 246.258 179.295 246.457C176.481 246.672 173.554 244.952 173.316 241.833C173.002 237.731 176.033 236.34 179.796 235.61L182.788 235.04C183.964 234.814 184.892 234.47 184.784 233.046C184.675 231.623 183.17 231.124 181.509 231.251C177.848 231.53 177.953 234.25 175.987 234.4C174.733 234.496 173.818 233.679 173.74 232.662C173.59 230.696 176.178 227.975 181.264 227.587C186.01 227.224 189.415 228.498 189.687 232.058ZM185.247 239.115L185.1 237.182C184.596 237.732 183.592 237.979 183.023 238.125L181.247 238.534C179.203 238.997 178.133 239.726 178.247 241.218C178.332 242.337 179.453 243.172 181.148 243.042C183.86 242.835 185.387 240.945 185.247 239.115ZM195.085 242.762L194.028 228.93C193.914 227.439 194.835 226.55 196.089 226.454C197.344 226.358 198.389 227.097 198.503 228.589L198.648 230.487L198.716 230.482C199.134 228.37 200.09 226.149 202.497 225.965C204.056 225.846 205.287 226.775 205.393 228.165C205.533 229.995 204.361 230.733 203.141 230.826L202.26 230.893C200.259 231.046 199.281 232.519 199.594 236.621L200.034 242.384C200.135 243.706 199.681 244.9 197.748 245.048C195.816 245.195 195.186 244.084 195.085 242.762ZM208.619 241.728L207.575 228.066C207.461 226.574 208.064 225.539 209.624 225.42C211.183 225.301 211.936 226.233 212.05 227.724L212.099 228.368L212.167 228.363C213.417 226.426 215.116 225.001 217.93 224.786C220.913 224.558 224.281 225.801 224.665 230.818L225.4 240.446C225.501 241.768 225.047 242.963 223.114 243.11C221.182 243.258 220.551 242.147 220.45 240.824L219.79 232.18C219.637 230.179 218.545 228.831 216.41 228.994C214.681 229.126 212.755 230.705 212.944 233.18L213.569 241.35C213.67 242.672 213.215 243.866 211.283 244.014C209.35 244.162 208.72 243.05 208.619 241.728ZM240.847 237.323L240.044 226.813L239.196 226.878C237.806 226.984 237.189 226.486 237.106 225.401C237.023 224.316 237.558 223.73 238.948 223.624L239.795 223.559L239.565 220.542C239.441 218.914 240.359 217.992 241.851 217.878C243.342 217.764 244.39 218.536 244.514 220.164L244.745 223.181L246.237 223.067C247.694 222.955 248.508 223.337 248.598 224.523C248.689 225.71 247.943 226.21 246.485 226.321L244.994 226.435L245.75 236.334C245.807 237.08 246.245 237.456 247.126 237.389L247.838 237.334C248.923 237.251 249.614 237.812 249.694 238.863C249.803 240.287 248.642 241.16 246.269 241.341C242.675 241.616 241.069 240.238 240.847 237.323ZM255.934 231.226C256.165 234.243 257.621 236.792 260.57 236.566C263.52 236.341 264.572 233.601 264.342 230.584C264.096 227.363 262.59 225.057 259.708 225.277C256.826 225.497 255.688 228.005 255.934 231.226ZM250.985 231.604C250.586 226.383 253.462 222.072 259.428 221.616C265.395 221.16 268.892 224.985 269.291 230.206C269.669 235.155 267.596 239.712 260.85 240.228C254.104 240.743 251.363 236.554 250.985 231.604ZM283.384 236.153L281.82 215.677C281.696 214.05 282.614 213.127 284.106 213.013C285.597 212.899 286.645 213.672 286.77 215.299L287.282 222.012L287.35 222.006C288.212 220.338 289.837 219.293 292.04 219.125C297.261 218.726 300.007 222.983 300.37 227.729C300.859 234.137 297.462 237.431 293.326 237.747C290.919 237.931 288.842 237.066 287.867 235.027L287.8 235.032L287.859 235.812C287.976 237.337 287.258 238.21 285.8 238.322C284.275 238.438 283.501 237.679 283.384 236.153ZM295.433 228.277C295.257 225.972 294.234 222.844 291.081 223.085C288.061 223.282 287.34 226.338 287.534 228.88C287.749 231.694 289.031 234.188 291.912 233.968C294.552 233.698 295.656 231.192 295.433 228.277ZM319.039 227.36L307.852 228.215C308.051 230.825 309.891 232.594 312.773 232.374C316.502 232.089 316.316 229.648 318.316 229.496C319.502 229.405 320.427 230.357 320.497 231.273C320.725 234.256 316.051 236.011 313.068 236.239C306.152 236.767 303.184 232.288 302.856 227.983C302.415 222.22 305.612 218.088 311.477 217.64C317.172 217.205 320.735 220.991 321.046 225.059C321.175 226.754 320.7 227.233 319.039 227.36ZM307.634 225.367L316.313 224.704C315.868 222.454 314.046 220.922 311.843 221.09C309.368 221.279 307.993 222.919 307.634 225.367ZM143.923 286.48L142.486 267.665C142.297 265.19 143.526 264.312 145.492 264.161L157.73 263.227C159.358 263.102 160.581 263.486 160.715 265.249C160.85 267.012 159.7 267.577 158.072 267.702L148.139 268.46L148.574 274.156L156.982 273.513C158.44 273.402 159.623 273.721 159.755 275.45C159.887 277.179 158.766 277.674 157.308 277.785L148.901 278.427L149.483 286.055C149.61 287.716 148.611 288.918 146.916 289.047C145.221 289.177 144.05 288.141 143.923 286.48ZM164.826 285.19L163.782 271.528C163.681 270.206 164.136 269.012 166.068 268.864C168 268.716 168.631 269.828 168.732 271.15L169.776 284.812C169.877 286.134 169.422 287.328 167.49 287.476C165.557 287.623 164.927 286.512 164.826 285.19ZM163.168 264.823C163.059 263.399 164.124 262.159 165.548 262.05C166.971 261.941 168.212 263.006 168.321 264.429C168.43 265.853 167.365 267.094 165.941 267.203C164.517 267.312 163.277 266.247 163.168 264.823ZM173.99 284.49L172.947 270.828C172.833 269.336 173.436 268.301 174.995 268.182C176.554 268.063 177.308 268.994 177.421 270.486L177.471 271.13L177.538 271.125C178.789 269.188 180.487 267.762 183.301 267.548C186.284 267.32 189.653 268.563 190.036 273.58L190.771 283.208C190.872 284.53 190.418 285.724 188.486 285.872C186.553 286.019 185.923 284.908 185.822 283.586L185.161 274.941C185.009 272.941 183.917 271.592 181.781 271.756C180.052 271.888 178.127 273.467 178.316 275.942L178.94 284.112C179.041 285.434 178.586 286.628 176.654 286.776C174.722 286.923 174.091 285.812 173.99 284.49ZM210.313 270.599L210.947 278.905C211.105 280.973 211.65 281.409 211.71 282.188C211.795 283.307 210.804 284.167 209.617 284.258C207.481 284.421 206.666 283.119 206.481 281.599C204.712 283.882 202.532 284.799 199.921 284.998C197.108 285.213 194.18 283.493 193.942 280.374C193.628 276.272 196.659 274.881 200.423 274.151L203.414 273.581C204.59 273.355 205.519 273.011 205.41 271.587C205.301 270.163 203.797 269.665 202.136 269.792C198.474 270.071 198.58 272.791 196.613 272.941C195.359 273.037 194.444 272.22 194.367 271.203C194.216 269.237 196.805 266.516 201.89 266.128C206.636 265.765 210.041 267.039 210.313 270.599ZM205.873 277.656L205.726 275.723C205.222 276.273 204.218 276.52 203.65 276.666L201.874 277.075C199.829 277.538 198.759 278.267 198.873 279.759C198.959 280.878 200.08 281.713 201.775 281.583C204.487 281.376 206.013 279.486 205.873 277.656ZM215.44 281.324L214.396 267.662C214.282 266.17 214.885 265.135 216.445 265.016C218.004 264.897 218.757 265.828 218.871 267.32L218.92 267.964L218.988 267.959C220.238 266.022 221.937 264.596 224.75 264.381C227.734 264.153 231.102 265.397 231.485 270.414L232.221 280.042C232.322 281.364 231.867 282.558 229.935 282.706C228.003 282.853 227.372 281.742 227.271 280.42L226.611 271.775C226.458 269.775 225.366 268.426 223.23 268.589C221.501 268.721 219.576 270.301 219.765 272.775L220.389 280.946C220.49 282.268 220.036 283.462 218.104 283.609C216.171 283.757 215.541 282.646 215.44 281.324ZM234.721 273.338C234.286 267.643 237.203 263.43 243.272 262.967C247.407 262.651 250.671 264.754 250.847 267.059C250.956 268.483 249.959 269.276 248.705 269.371C246.366 269.55 246.991 266.57 243.431 266.842C241.499 266.989 239.328 268.485 239.67 272.96C239.906 276.045 241.516 277.934 244.229 277.727C247.686 277.462 246.697 274.333 249.308 274.133C250.562 274.037 251.445 274.891 251.521 275.874C251.686 278.043 249.473 281.213 244.388 281.602C238.286 282.068 235.117 278.525 234.721 273.338ZM254.644 278.329L253.601 264.667C253.5 263.345 253.954 262.151 255.886 262.003C257.819 261.855 258.449 262.967 258.55 264.289L259.594 277.951C259.695 279.273 259.241 280.467 257.308 280.615C255.376 280.762 254.745 279.651 254.644 278.329ZM252.986 257.962C252.878 256.538 253.942 255.298 255.366 255.189C256.79 255.08 258.031 256.145 258.139 257.568C258.248 258.992 257.183 260.233 255.76 260.342C254.336 260.451 253.095 259.386 252.986 257.962ZM279.406 265.321L280.041 273.627C280.199 275.695 280.744 276.131 280.803 276.91C280.889 278.029 279.897 278.889 278.711 278.98C276.575 279.143 275.759 277.841 275.575 276.321C273.806 278.604 271.625 279.521 269.015 279.72C266.201 279.935 263.274 278.215 263.035 275.096C262.722 270.994 265.753 269.604 269.516 268.873L272.508 268.303C273.684 268.077 274.612 267.733 274.503 266.309C274.395 264.886 272.89 264.387 271.229 264.514C267.568 264.793 267.673 267.513 265.707 267.663C264.453 267.759 263.538 266.943 263.46 265.925C263.31 263.959 265.898 261.238 270.983 260.85C275.73 260.487 279.135 261.762 279.406 265.321ZM274.967 272.378L274.819 270.445C274.316 270.995 273.312 271.243 272.743 271.388L270.967 271.797C268.922 272.26 267.853 272.989 267.967 274.481C268.052 275.6 269.173 276.435 270.868 276.305C273.58 276.098 275.107 274.208 274.967 272.378ZM284.805 276.025L283.251 255.684C283.126 254.057 284.045 253.135 285.537 253.021C287.028 252.907 288.076 253.679 288.2 255.306L289.754 275.647C289.878 277.274 288.96 278.197 287.468 278.311C285.977 278.425 284.929 277.652 284.805 276.025ZM294.24 275.304L292.686 254.964C292.562 253.336 293.48 252.414 294.972 252.3C296.464 252.186 297.511 252.958 297.636 254.586L299.19 274.926C299.314 276.554 298.395 277.476 296.904 277.59C295.412 277.704 294.364 276.932 294.24 275.304ZM305.704 260.073L309.774 271.39L309.842 271.385L312.002 259.933C312.245 258.653 312.85 257.652 314.206 257.548C316.173 257.398 316.873 258.981 316.92 259.591C316.951 259.998 316.854 260.517 316.666 261.179L312.177 277.856C311.25 281.336 310.028 283.203 306.909 283.441C304.706 283.609 303.708 282.594 303.617 281.408C303.516 280.086 304.413 279.335 305.736 279.234L306.244 279.195C306.888 279.146 307.598 279.058 307.854 277.504L301.58 263.218C301.082 262.063 300.837 261.536 300.793 260.96C300.69 259.604 301.697 258.504 303.019 258.403C304.341 258.302 305.313 258.978 305.704 260.073ZM197.706 322.488L196.269 303.673C196.08 301.198 197.308 300.32 199.275 300.17L211.513 299.235C213.14 299.111 214.363 299.494 214.498 301.257C214.632 303.02 213.482 303.585 211.855 303.71L201.922 304.469L202.357 310.164L210.764 309.522C212.222 309.41 213.406 309.729 213.538 311.458C213.67 313.187 212.548 313.682 211.091 313.793L202.683 314.435L203.266 322.063C203.393 323.724 202.393 324.926 200.698 325.056C199.003 325.185 197.833 324.149 197.706 322.488ZM218.013 321.244L216.956 307.412C216.842 305.92 217.763 305.032 219.017 304.936C220.272 304.84 221.317 305.579 221.431 307.07L221.576 308.969L221.644 308.963C222.062 306.851 223.018 304.63 225.425 304.446C226.984 304.327 228.215 305.256 228.321 306.646C228.461 308.477 227.289 309.214 226.069 309.307L225.187 309.375C223.187 309.528 222.209 311 222.522 315.102L222.962 320.866C223.063 322.188 222.609 323.382 220.676 323.529C218.744 323.677 218.114 322.566 218.013 321.244ZM246.09 313.166L234.903 314.02C235.102 316.631 236.942 318.4 239.824 318.18C243.553 317.895 243.367 315.454 245.367 315.301C246.553 315.21 247.478 316.163 247.548 317.078C247.776 320.061 243.102 321.816 240.119 322.044C233.203 322.573 230.235 318.094 229.907 313.788C229.466 308.025 232.663 303.893 238.528 303.445C244.223 303.01 247.786 306.796 248.097 310.864C248.226 312.559 247.751 313.039 246.09 313.166ZM234.685 311.173L243.364 310.51C242.919 308.259 241.097 306.727 238.894 306.896C236.419 307.085 235.044 308.724 234.685 311.173ZM266.848 311.58L255.661 312.435C255.86 315.045 257.7 316.814 260.582 316.594C264.311 316.309 264.124 313.868 266.125 313.715C267.311 313.625 268.236 314.577 268.306 315.492C268.534 318.476 263.86 320.231 260.877 320.459C253.961 320.987 250.993 316.508 250.664 312.203C250.224 306.439 253.421 302.308 259.286 301.86C264.981 301.425 268.544 305.21 268.855 309.279C268.984 310.974 268.509 311.453 266.848 311.58ZM255.443 309.587L264.122 308.924C263.677 306.673 261.855 305.142 259.652 305.31C257.177 305.499 255.802 307.139 255.443 309.587Z" fill="white"/>
<path d="M-33 392.5L73.5821 280.459C80.9762 272.687 92.8985 271.38 101.8 277.368L410.5 485" stroke="#BFF434" stroke-width="20"/>
<path d="M373.343 401.838C375.614 398.945 378.762 396.867 382.315 395.915L400.207 391.123C401.941 390.659 403.692 391.811 403.951 393.587L418.5 493L390.511 472.528L384.707 465.193L381.375 458.684L372.489 455.36L376.17 425.901C377.171 423.133 376.752 420.05 375.049 417.65L374.394 416.728L371.694 411.826C370.146 409.014 370.428 405.55 372.41 403.026L373.343 401.838Z" fill="#BFF434"/>
<path d="M312.102 510.866L312.102 493.718L322.579 483.218L342.579 474.218L365.079 474.218L375.579 466.218L412.85 464.533L417.679 492.88L312.102 510.866Z" fill="#BFF434"/>
</svg>
